<svg xmlns="http://www.w3.org/2000/svg" version="1.1" xmlns:xlink="http://www.w3.org/1999/xlink" xmlns:svgjs="http://svgjs.dev/svgjs" width="2000" height="2386" viewBox="0 0 2000 2386"><g transform="matrix(1,0,0,1,0.8461261698298586,0.9659919028340482)"><svg viewBox="0 0 207 247" data-background-color="#0c1d36" preserveAspectRatio="xMidYMid meet" height="2386" width="2000" xmlns="http://www.w3.org/2000/svg" xmlns:xlink="http://www.w3.org/1999/xlink"><g id="tight-bounds" transform="matrix(1,0,0,1,-0.08757405857738831,-0.09999999999999432)"><svg viewBox="0 0 207.17514811715478 247.2" height="247.2" width="207.17514811715478"><g><svg viewBox="0 0 207.17514811715478 247.2" height="247.2" width="207.17514811715478"><g><svg viewBox="0 0 207.17514811715478 247.2" height="247.2" width="207.17514811715478"><g id="textblocktransform"><svg viewBox="0 0 207.17514811715478 247.2" height="247.2" width="207.17514811715478" id="textblock"><g><svg viewBox="0 0 207.17514811715478 247.2" height="247.2" width="207.17514811715478"><rect width="207.17514811715478" height="247.2" x="0" y="0" opacity="1" fill="#f9cc0b" data-fill-palette-color="tertiary"></rect><g transform="matrix(1,0,0,1,23.607599999999998,23.607599999999998)"><svg width="159.9599481171548" viewBox="3.25 -35.01 28 35.01" height="199.9848" data-palette-color="#0c1d36"><path d="M31.25-10.5L31.25-10.5Q31.25-8.33 30.42-6.42 29.59-4.52 28.16-3.09 26.73-1.66 24.83-0.83 22.92 0 20.75 0L20.75 0 3.25 0 3.25-35.01 20.75-35.01Q22.92-35.01 24.83-34.18 26.73-33.35 28.16-31.92 29.59-30.49 30.42-28.59 31.25-26.68 31.25-24.51L31.25-24.51Q31.25-23.54 30.98-22.51 30.71-21.48 30.22-20.53 29.74-19.58 29.05-18.8 28.37-18.02 27.54-17.5L27.54-17.5Q28.39-17.04 29.08-16.25 29.76-15.45 30.25-14.5 30.74-13.55 30.99-12.51 31.25-11.47 31.25-10.5ZM10.25-13.99L10.25-7.01 20.75-7.01Q21.48-7.01 22.12-7.28 22.75-7.54 23.23-8.02 23.71-8.5 23.97-9.13 24.24-9.77 24.24-10.5L24.24-10.5Q24.24-11.23 23.97-11.87 23.71-12.5 23.23-12.98 22.75-13.45 22.12-13.72 21.48-13.99 20.75-13.99L20.75-13.99 10.25-13.99ZM10.25-28L10.25-21 20.75-21Q21.48-21 22.12-21.26 22.75-21.53 23.23-22.01 23.71-22.49 23.97-23.13 24.24-23.78 24.24-24.51L24.24-24.51Q24.24-25.24 23.97-25.88 23.71-26.51 23.23-26.99 22.75-27.47 22.12-27.73 21.48-28 20.75-28L20.75-28 10.25-28Z" opacity="1" transform="matrix(1,0,0,1,0,0)" fill="#0c1d36" class="wordmark-text-0" data-fill-palette-color="quaternary" id="text-0"></path></svg></g></svg></g></svg></g></svg></g></svg></g><defs></defs></svg><rect width="207.17514811715478" height="247.2" fill="none" stroke="none" visibility="hidden"></rect></g></svg></g></svg>